G04*
G04 #@! TF.GenerationSoftware,Altium Limited,Altium Designer,21.6.4 (81)*
G04*
G04 Layer_Color=65535*
%FSLAX25Y25*%
%MOIN*%
G70*
G04*
G04 #@! TF.SameCoordinates,D230F567-8F14-4DE2-9EB9-46B1BD9AA4B9*
G04*
G04*
G04 #@! TF.FilePolarity,Positive*
G04*
G01*
G75*
%ADD10C,0.02362*%
%ADD11C,0.00984*%
%ADD12C,0.00394*%
%ADD13C,0.00787*%
%ADD14C,0.00394*%
%ADD15C,0.01000*%
%ADD16C,0.00500*%
%ADD17C,0.00250*%
D10*
X95969Y166746D02*
X95525Y167669D01*
X94526Y167897D01*
X93724Y167258D01*
Y166233D01*
X94526Y165594D01*
X95525Y165822D01*
X95969Y166746D01*
D11*
X87111Y170289D02*
X86373Y170715D01*
Y169863D01*
X87111Y170289D01*
D12*
X142466Y153370D02*
D03*
D13*
X90851Y119108D02*
X109749D01*
X90851Y170683D02*
X109749D01*
Y119108D02*
Y170683D01*
X90851Y119108D02*
Y170683D01*
X101385Y189855D02*
X102173D01*
X101385Y192414D02*
X102173D01*
X174934Y95256D02*
Y96043D01*
X172376Y95256D02*
Y96043D01*
X191470Y95256D02*
Y96043D01*
X188911Y95256D02*
Y96043D01*
X208005Y95256D02*
Y96043D01*
X205446Y95256D02*
Y96043D01*
X224541Y95256D02*
Y96043D01*
X221982Y95256D02*
Y96043D01*
X241076Y95256D02*
Y96043D01*
X238517Y95256D02*
Y96043D01*
X127443Y153017D02*
X128230D01*
X127443Y150458D02*
X128230D01*
X122617Y198798D02*
X123404D01*
X122617Y201357D02*
X123404D01*
X134030Y163539D02*
X134817D01*
X134030Y160980D02*
X134817D01*
X123326Y163528D02*
X124113D01*
X123326Y160969D02*
X124113D01*
X256941Y151238D02*
Y153207D01*
X252807Y151238D02*
Y153207D01*
X163974Y148754D02*
Y149541D01*
X166533Y148754D02*
Y149541D01*
X166606Y159439D02*
Y160227D01*
X164047Y159439D02*
Y160227D01*
X167400Y186531D02*
Y187318D01*
X164840Y186531D02*
Y187318D01*
X164653Y175788D02*
Y176575D01*
X167212Y175788D02*
Y176575D01*
X174808Y192983D02*
X180911D01*
X77057Y184767D02*
Y186735D01*
X81191Y184767D02*
Y186735D01*
X83258Y184767D02*
Y186735D01*
X87391Y184767D02*
Y186735D01*
X59871Y168333D02*
Y170302D01*
X64004Y168333D02*
Y170302D01*
X53671Y168433D02*
Y170402D01*
X57805Y168433D02*
Y170402D01*
X54003Y139256D02*
Y141224D01*
X58137Y139256D02*
Y141224D01*
X60696Y139256D02*
Y141224D01*
X64830Y139256D02*
Y141224D01*
X101425Y100562D02*
Y102531D01*
X97291Y100562D02*
Y102531D01*
X82981Y100774D02*
Y102743D01*
X87115Y100774D02*
Y102743D01*
X66107Y100250D02*
Y102219D01*
X61973Y100250D02*
Y102219D01*
X47915Y100722D02*
Y102690D01*
X43781Y100722D02*
Y102690D01*
X41222Y100722D02*
Y102690D01*
X37088Y100722D02*
Y102690D01*
X256941Y182600D02*
Y184569D01*
X252807Y182600D02*
Y184569D01*
X102753Y180156D02*
Y182124D01*
X106886Y180156D02*
Y182124D01*
X96552Y180156D02*
Y182124D01*
X100686Y180156D02*
Y182124D01*
X59434Y184017D02*
Y185986D01*
X63567Y184017D02*
Y185986D01*
X53233Y184117D02*
Y186085D01*
X57367Y184117D02*
Y186085D01*
X57598Y152914D02*
Y154883D01*
X53465Y152914D02*
Y154883D01*
X64322Y152784D02*
Y154752D01*
X60188Y152784D02*
Y154752D01*
X53104Y122098D02*
Y124066D01*
X48970Y122098D02*
Y124066D01*
X59797Y122098D02*
Y124066D01*
X55663Y122098D02*
Y124066D01*
X108711Y100596D02*
Y102565D01*
X104577Y100596D02*
Y102565D01*
X76288Y100774D02*
Y102743D01*
X80422Y100774D02*
Y102743D01*
X72549Y100592D02*
Y102561D01*
X68415Y100592D02*
Y102561D01*
D14*
X304848Y160074D02*
X332899D01*
X304848D02*
X332899D01*
Y225035D01*
Y160074D02*
Y225035D01*
X304848D02*
X332899D01*
X304848D02*
X332899D01*
X270891D02*
X291069D01*
X270891D02*
X291069D01*
X270891Y160074D02*
Y225035D01*
Y160074D02*
Y225035D01*
Y160074D02*
X291069D01*
X270891D02*
X291069D01*
X270742Y75886D02*
X290919D01*
X270742D02*
X290919D01*
X270742D02*
Y140847D01*
Y75886D02*
Y140847D01*
X290919D01*
X270742D02*
X290919D01*
X304699D02*
X332750D01*
X304699D02*
X332750D01*
Y75886D02*
Y140847D01*
Y75886D02*
Y140847D01*
X304699Y75886D02*
X332750D01*
X304699D02*
X332750D01*
D15*
X7687Y277832D02*
Y281830D01*
X9686Y283830D01*
X11686Y281830D01*
Y277832D01*
Y280831D01*
X7687D01*
X13685Y277832D02*
Y283830D01*
Y279831D02*
X16684Y281830D01*
X13685Y279831D02*
X16684Y277832D01*
X19683D02*
X22682D01*
X23682Y278831D01*
X22682Y279831D01*
X20683D01*
X19683Y280831D01*
X20683Y281830D01*
X23682D01*
X25681Y283830D02*
Y277832D01*
Y280831D01*
X26681Y281830D01*
X28680D01*
X29680Y280831D01*
Y277832D01*
X32679Y281830D02*
X34678D01*
X35678Y280831D01*
Y277832D01*
X32679D01*
X31679Y278831D01*
X32679Y279831D01*
X35678D01*
X38677Y282830D02*
Y281830D01*
X37677D01*
X39677D01*
X38677D01*
Y278831D01*
X39677Y277832D01*
X48674Y283830D02*
Y277832D01*
X51673D01*
X52672Y278831D01*
Y282830D01*
X51673Y283830D01*
X48674D01*
X55672Y277832D02*
X57671D01*
X58671Y278831D01*
Y280831D01*
X57671Y281830D01*
X55672D01*
X54672Y280831D01*
Y278831D01*
X55672Y277832D01*
X64669Y281830D02*
X61670D01*
X60670Y280831D01*
Y278831D01*
X61670Y277832D01*
X64669D01*
X67668Y282830D02*
Y281830D01*
X66668D01*
X68667D01*
X67668D01*
Y278831D01*
X68667Y277832D01*
X72666D02*
X74665D01*
X75665Y278831D01*
Y280831D01*
X74665Y281830D01*
X72666D01*
X71666Y280831D01*
Y278831D01*
X72666Y277832D01*
X77664Y281830D02*
Y277832D01*
Y279831D01*
X78664Y280831D01*
X79664Y281830D01*
X80664D01*
X7280Y293968D02*
Y287970D01*
X9279Y289969D01*
X11279Y287970D01*
Y293968D01*
X14278Y291968D02*
X16277D01*
X17277Y290969D01*
Y287970D01*
X14278D01*
X13278Y288969D01*
X14278Y289969D01*
X17277D01*
X20276Y292968D02*
Y291968D01*
X19276D01*
X21276D01*
X20276D01*
Y288969D01*
X21276Y287970D01*
X27274D02*
X25274D01*
X24275Y288969D01*
Y290969D01*
X25274Y291968D01*
X27274D01*
X28273Y290969D01*
Y289969D01*
X24275D01*
X30273Y291968D02*
Y287970D01*
Y289969D01*
X31272Y290969D01*
X32272Y291968D01*
X33272D01*
X36271Y287970D02*
X38270D01*
X37270D01*
Y293968D01*
X36271D01*
X42269Y287970D02*
X44268D01*
X45268Y288969D01*
Y290969D01*
X44268Y291968D01*
X42269D01*
X41269Y290969D01*
Y288969D01*
X42269Y287970D01*
X48267D02*
X50266D01*
X51266Y288969D01*
Y290969D01*
X50266Y291968D01*
X48267D01*
X47267Y290969D01*
Y288969D01*
X48267Y287970D01*
X53265Y285970D02*
Y291968D01*
X56264D01*
X57264Y290969D01*
Y288969D01*
X56264Y287970D01*
X53265D01*
X65261Y290969D02*
X69260D01*
X77258Y293968D02*
Y287970D01*
X80256D01*
X81256Y288969D01*
Y289969D01*
X80256Y290969D01*
X77258D01*
X80256D01*
X81256Y291968D01*
Y292968D01*
X80256Y293968D01*
X77258D01*
X83256Y287970D02*
Y293968D01*
X85255Y291968D01*
X87254Y293968D01*
Y287970D01*
X93252Y292968D02*
X92253Y293968D01*
X90253D01*
X89254Y292968D01*
Y291968D01*
X90253Y290969D01*
X92253D01*
X93252Y289969D01*
Y288969D01*
X92253Y287970D01*
X90253D01*
X89254Y288969D01*
X101250Y293968D02*
Y287970D01*
X104249D01*
X105248Y288969D01*
Y292968D01*
X104249Y293968D01*
X101250D01*
X107248D02*
X109247D01*
X108247D01*
Y287970D01*
X107248D01*
X109247D01*
X116245Y292968D02*
X115245Y293968D01*
X113246D01*
X112246Y292968D01*
Y291968D01*
X113246Y290969D01*
X115245D01*
X116245Y289969D01*
Y288969D01*
X115245Y287970D01*
X113246D01*
X112246Y288969D01*
X122243Y292968D02*
X121243Y293968D01*
X119244D01*
X118244Y292968D01*
Y288969D01*
X119244Y287970D01*
X121243D01*
X122243Y288969D01*
X124242Y293968D02*
Y287970D01*
Y290969D01*
X128241D01*
Y293968D01*
Y287970D01*
X130240D02*
Y291968D01*
X132240Y293968D01*
X134239Y291968D01*
Y287970D01*
Y290969D01*
X130240D01*
X136238Y287970D02*
Y293968D01*
X139237D01*
X140237Y292968D01*
Y290969D01*
X139237Y289969D01*
X136238D01*
X138238D02*
X140237Y287970D01*
X146235Y292968D02*
X145236Y293968D01*
X143236D01*
X142236Y292968D01*
Y288969D01*
X143236Y287970D01*
X145236D01*
X146235Y288969D01*
Y290969D01*
X144236D01*
X148234Y293968D02*
X150234D01*
X149234D01*
Y287970D01*
X148234D01*
X150234D01*
X153233D02*
Y293968D01*
X157232Y287970D01*
Y293968D01*
X163230Y292968D02*
X162230Y293968D01*
X160231D01*
X159231Y292968D01*
Y288969D01*
X160231Y287970D01*
X162230D01*
X163230Y288969D01*
Y290969D01*
X161230D01*
X171227Y293968D02*
Y287970D01*
X174226D01*
X175226Y288969D01*
Y289969D01*
X174226Y290969D01*
X171227D01*
X174226D01*
X175226Y291968D01*
Y292968D01*
X174226Y293968D01*
X171227D01*
X180224D02*
X178225D01*
X177225Y292968D01*
Y288969D01*
X178225Y287970D01*
X180224D01*
X181224Y288969D01*
Y292968D01*
X180224Y293968D01*
X183223Y287970D02*
Y291968D01*
X185223Y293968D01*
X187222Y291968D01*
Y287970D01*
Y290969D01*
X183223D01*
X189221Y287970D02*
Y293968D01*
X192220D01*
X193220Y292968D01*
Y290969D01*
X192220Y289969D01*
X189221D01*
X191221D02*
X193220Y287970D01*
X195219Y293968D02*
Y287970D01*
X198218D01*
X199218Y288969D01*
Y292968D01*
X198218Y293968D01*
X195219D01*
X174520Y206275D02*
X178518D01*
X176519D01*
Y200277D01*
X180518D02*
X182517D01*
X181517D01*
Y206275D01*
X180518Y205275D01*
D16*
X262140Y156455D02*
X264108D01*
Y155471D01*
X263780Y155143D01*
X263124D01*
X262796Y155471D01*
Y156455D01*
Y155799D02*
X262140Y155143D01*
Y154487D02*
Y153831D01*
Y154159D01*
X264108D01*
X263780Y154487D01*
Y152847D02*
X264108Y152519D01*
Y151863D01*
X263780Y151535D01*
X263452D01*
X263124Y151863D01*
X262796Y151535D01*
X262468D01*
X262140Y151863D01*
Y152519D01*
X262468Y152847D01*
X262796D01*
X263124Y152519D01*
X263452Y152847D01*
X263780D01*
X263124Y152519D02*
Y151863D01*
X87029Y175528D02*
Y173888D01*
X87357Y173560D01*
X88013D01*
X88341Y173888D01*
Y175528D01*
X88997Y173560D02*
X89653D01*
X89325D01*
Y175528D01*
X88997Y175200D01*
X262190Y186744D02*
X264158D01*
Y185760D01*
X263830Y185432D01*
X263174D01*
X262846Y185760D01*
Y186744D01*
Y186088D02*
X262190Y185432D01*
Y184776D02*
Y184121D01*
Y184449D01*
X264158D01*
X263830Y184776D01*
X264158Y183137D02*
Y181825D01*
X263830D01*
X262518Y183137D01*
X262190D01*
X155659Y95149D02*
X155003D01*
X155331D01*
Y93509D01*
X155003Y93181D01*
X154675D01*
X154347Y93509D01*
X157627Y95149D02*
X156315D01*
Y94165D01*
X156971Y94493D01*
X157299D01*
X157627Y94165D01*
Y93509D01*
X157299Y93181D01*
X156643D01*
X156315Y93509D01*
X33711Y52461D02*
X33055D01*
X33382D01*
Y50821D01*
X33055Y50493D01*
X32727D01*
X32399Y50821D01*
X35350Y50493D02*
Y52461D01*
X34367Y51477D01*
X35678D01*
X154279Y232052D02*
X153623D01*
X153951D01*
Y230413D01*
X153623Y230084D01*
X153295D01*
X152967Y230413D01*
X154935Y231724D02*
X155263Y232052D01*
X155919D01*
X156247Y231724D01*
Y231396D01*
X155919Y231068D01*
X155591D01*
X155919D01*
X156247Y230740D01*
Y230413D01*
X155919Y230084D01*
X155263D01*
X154935Y230413D01*
X90352Y191490D02*
Y193457D01*
X91336D01*
X91664Y193130D01*
Y192474D01*
X91336Y192146D01*
X90352D01*
X91008D02*
X91664Y191490D01*
X92320D02*
X92976D01*
X92648D01*
Y193457D01*
X92320Y193130D01*
X95271Y193457D02*
X94616Y193130D01*
X93960Y192474D01*
Y191818D01*
X94288Y191490D01*
X94944D01*
X95271Y191818D01*
Y192146D01*
X94944Y192474D01*
X93960D01*
X172197Y103984D02*
Y105952D01*
X173181D01*
X173509Y105624D01*
Y104968D01*
X173181Y104640D01*
X172197D01*
X172853D02*
X173509Y103984D01*
X174165Y104312D02*
X174493Y103984D01*
X175149D01*
X175477Y104312D01*
Y105624D01*
X175149Y105952D01*
X174493D01*
X174165Y105624D01*
Y105296D01*
X174493Y104968D01*
X175477D01*
X187574Y103984D02*
Y105952D01*
X188557D01*
X188885Y105624D01*
Y104968D01*
X188557Y104640D01*
X187574D01*
X188229D02*
X188885Y103984D01*
X189541D02*
X190197D01*
X189869D01*
Y105952D01*
X189541Y105624D01*
X191181D02*
X191509Y105952D01*
X192165D01*
X192493Y105624D01*
Y104312D01*
X192165Y103984D01*
X191509D01*
X191181Y104312D01*
Y105624D01*
X204590Y103984D02*
Y105952D01*
X205574D01*
X205902Y105624D01*
Y104968D01*
X205574Y104640D01*
X204590D01*
X205246D02*
X205902Y103984D01*
X206557D02*
X207213D01*
X206885D01*
Y105952D01*
X206557Y105624D01*
X208197Y103984D02*
X208853D01*
X208525D01*
Y105952D01*
X208197Y105624D01*
X220950Y103984D02*
Y105952D01*
X221934D01*
X222262Y105624D01*
Y104968D01*
X221934Y104640D01*
X220950D01*
X221606D02*
X222262Y103984D01*
X222918D02*
X223574D01*
X223246D01*
Y105952D01*
X222918Y105624D01*
X225869Y103984D02*
X224557D01*
X225869Y105296D01*
Y105624D01*
X225541Y105952D01*
X224886D01*
X224557Y105624D01*
X237966Y103984D02*
Y105952D01*
X238950D01*
X239278Y105624D01*
Y104968D01*
X238950Y104640D01*
X237966D01*
X238622D02*
X239278Y103984D01*
X239934D02*
X240590D01*
X240262D01*
Y105952D01*
X239934Y105624D01*
X241574D02*
X241902Y105952D01*
X242558D01*
X242885Y105624D01*
Y105296D01*
X242558Y104968D01*
X242230D01*
X242558D01*
X242885Y104640D01*
Y104312D01*
X242558Y103984D01*
X241902D01*
X241574Y104312D01*
X134615Y136259D02*
Y138227D01*
X135599D01*
X135927Y137899D01*
Y137243D01*
X135599Y136915D01*
X134615D01*
X135271D02*
X135927Y136259D01*
X136583Y137899D02*
X136911Y138227D01*
X137567D01*
X137895Y137899D01*
Y137571D01*
X137567Y137243D01*
X137895Y136915D01*
Y136587D01*
X137567Y136259D01*
X136911D01*
X136583Y136587D01*
Y136915D01*
X136911Y137243D01*
X136583Y137571D01*
Y137899D01*
X136911Y137243D02*
X137567D01*
X113398Y198925D02*
Y200893D01*
X114382D01*
X114710Y200565D01*
Y199909D01*
X114382Y199581D01*
X113398D01*
X114054D02*
X114710Y198925D01*
X115366Y200893D02*
X116678D01*
Y200565D01*
X115366Y199253D01*
Y198925D01*
X127175Y168968D02*
Y170936D01*
X128159D01*
X128487Y170608D01*
Y169952D01*
X128159Y169624D01*
X127175D01*
X127831D02*
X128487Y168968D01*
X130455Y170936D02*
X129799Y170608D01*
X129143Y169952D01*
Y169296D01*
X129471Y168968D01*
X130127D01*
X130455Y169296D01*
Y169624D01*
X130127Y169952D01*
X129143D01*
X121920Y168812D02*
Y170780D01*
X122904D01*
X123232Y170452D01*
Y169796D01*
X122904Y169468D01*
X121920D01*
X122576D02*
X123232Y168812D01*
X125200Y170780D02*
X123888D01*
Y169796D01*
X124544Y170124D01*
X124872D01*
X125200Y169796D01*
Y169140D01*
X124872Y168812D01*
X124216D01*
X123888Y169140D01*
X117669Y176491D02*
Y177803D01*
X117341Y178131D01*
X116685D01*
X116357Y177803D01*
Y176491D01*
X116685Y176163D01*
X117341D01*
X117013Y176819D02*
X117669Y176163D01*
X117341D02*
X117669Y176491D01*
X119637Y176163D02*
X118325D01*
X119637Y177475D01*
Y177803D01*
X119309Y178131D01*
X118653D01*
X118325Y177803D01*
X143478Y144037D02*
Y142069D01*
X144462D01*
X144790Y142397D01*
Y143709D01*
X144462Y144037D01*
X143478D01*
X145446Y142069D02*
X146101D01*
X145773D01*
Y144037D01*
X145446Y143709D01*
X135974Y134142D02*
X135646Y134470D01*
X134990D01*
X134662Y134142D01*
Y132830D01*
X134990Y132502D01*
X135646D01*
X135974Y132830D01*
X137942Y134470D02*
X136630D01*
Y133486D01*
X137286Y133814D01*
X137614D01*
X137942Y133486D01*
Y132830D01*
X137614Y132502D01*
X136958D01*
X136630Y132830D01*
X136068Y126205D02*
X135740Y126533D01*
X135084D01*
X134756Y126205D01*
Y124893D01*
X135084Y124565D01*
X135740D01*
X136068Y124893D01*
X137708Y124565D02*
Y126533D01*
X136724Y125549D01*
X138036D01*
X135974Y130291D02*
X135646Y130619D01*
X134990D01*
X134662Y130291D01*
Y128979D01*
X134990Y128651D01*
X135646D01*
X135974Y128979D01*
X136630Y130291D02*
X136958Y130619D01*
X137614D01*
X137942Y130291D01*
Y129963D01*
X137614Y129635D01*
X137286D01*
X137614D01*
X137942Y129307D01*
Y128979D01*
X137614Y128651D01*
X136958D01*
X136630Y128979D01*
X142698Y193591D02*
X142370Y193919D01*
X141714D01*
X141386Y193591D01*
Y192279D01*
X141714Y191951D01*
X142370D01*
X142698Y192279D01*
X144666Y191951D02*
X143354D01*
X144666Y193263D01*
Y193591D01*
X144338Y193919D01*
X143682D01*
X143354Y193591D01*
D17*
X163442Y168616D02*
Y169797D01*
X164032D01*
X164229Y169600D01*
Y169207D01*
X164032Y169010D01*
X163442D01*
X163835D02*
X164229Y168616D01*
X164622D02*
X165016D01*
X164819D01*
Y169797D01*
X164622Y169600D01*
X166393Y169797D02*
X165606D01*
Y169207D01*
X166000Y169404D01*
X166197D01*
X166393Y169207D01*
Y168813D01*
X166197Y168616D01*
X165803D01*
X165606Y168813D01*
X163526Y193161D02*
Y194660D01*
X164276D01*
X164526Y194411D01*
Y193911D01*
X164276Y193661D01*
X163526D01*
X164026D02*
X164526Y193161D01*
X165026D02*
X165526D01*
X165276D01*
Y194660D01*
X165026Y194411D01*
X167025Y193161D02*
Y194660D01*
X166276Y193911D01*
X167275D01*
X163610Y141157D02*
Y142656D01*
X164360D01*
X164610Y142406D01*
Y141906D01*
X164360Y141656D01*
X163610D01*
X164110D02*
X164610Y141157D01*
X165860D02*
Y142656D01*
X165110Y141906D01*
X166110D01*
X164061Y166123D02*
Y167304D01*
X164651D01*
X164848Y167107D01*
Y166713D01*
X164651Y166516D01*
X164061D01*
X164454D02*
X164848Y166123D01*
X165242Y167107D02*
X165438Y167304D01*
X165832D01*
X166029Y167107D01*
Y166910D01*
X165832Y166713D01*
X165635D01*
X165832D01*
X166029Y166516D01*
Y166320D01*
X165832Y166123D01*
X165438D01*
X165242Y166320D01*
X146341Y155624D02*
X146091Y155874D01*
X145591D01*
X145341Y155624D01*
Y154625D01*
X145591Y154375D01*
X146091D01*
X146341Y154625D01*
X146841Y154375D02*
X147341D01*
X147091D01*
Y155874D01*
X146841Y155624D01*
X148090Y154375D02*
X148590D01*
X148340D01*
Y155874D01*
X148090Y155624D01*
X169327Y141823D02*
X169078Y142073D01*
X168578D01*
X168328Y141823D01*
Y140824D01*
X168578Y140574D01*
X169078D01*
X169327Y140824D01*
X169827Y140574D02*
X170327D01*
X170077D01*
Y142073D01*
X169827Y141823D01*
X171077D02*
X171327Y142073D01*
X171827D01*
X172077Y141823D01*
Y140824D01*
X171827Y140574D01*
X171327D01*
X171077Y140824D01*
Y141823D01*
X149322Y181747D02*
X149072Y181997D01*
X148573D01*
X148323Y181747D01*
Y180747D01*
X148573Y180497D01*
X149072D01*
X149322Y180747D01*
X149822D02*
X150072Y180497D01*
X150572D01*
X150822Y180747D01*
Y181747D01*
X150572Y181997D01*
X150072D01*
X149822Y181747D01*
Y181497D01*
X150072Y181247D01*
X150822D01*
X170370Y169668D02*
X170173Y169865D01*
X169780D01*
X169583Y169668D01*
Y168881D01*
X169780Y168684D01*
X170173D01*
X170370Y168881D01*
X170763Y169668D02*
X170960Y169865D01*
X171354D01*
X171551Y169668D01*
Y169471D01*
X171354Y169274D01*
X171551Y169078D01*
Y168881D01*
X171354Y168684D01*
X170960D01*
X170763Y168881D01*
Y169078D01*
X170960Y169274D01*
X170763Y169471D01*
Y169668D01*
X170960Y169274D02*
X171354D01*
X170103Y194844D02*
X169853Y195094D01*
X169353D01*
X169103Y194844D01*
Y193845D01*
X169353Y193595D01*
X169853D01*
X170103Y193845D01*
X170603Y195094D02*
X171603D01*
Y194844D01*
X170603Y193845D01*
Y193595D01*
X170135Y167179D02*
X169939Y167376D01*
X169545D01*
X169348Y167179D01*
Y166392D01*
X169545Y166195D01*
X169939D01*
X170135Y166392D01*
X171316Y167376D02*
X170922Y167179D01*
X170529Y166786D01*
Y166392D01*
X170726Y166195D01*
X171119D01*
X171316Y166392D01*
Y166589D01*
X171119Y166786D01*
X170529D01*
X92981Y197926D02*
Y198910D01*
X93473D01*
X93637Y198746D01*
Y198418D01*
X93473Y198254D01*
X92981D01*
X93309D02*
X93637Y197926D01*
X94621D02*
X93965D01*
X94621Y198582D01*
Y198746D01*
X94457Y198910D01*
X94129D01*
X93965Y198746D01*
X94949Y197762D02*
X95605D01*
X96589Y198746D02*
X96425Y198910D01*
X96097D01*
X95933Y198746D01*
Y198090D01*
X96097Y197926D01*
X96425D01*
X96589Y198090D01*
X97573Y198910D02*
X96917D01*
Y197926D01*
X97573D01*
X96917Y198418D02*
X97245D01*
X97901Y198910D02*
Y197926D01*
X98557D01*
X98885Y198910D02*
Y197926D01*
X99541D01*
X99869Y197762D02*
X100524D01*
X100853Y197926D02*
X101181D01*
X101016D01*
Y198910D01*
X100853Y198746D01*
X101672Y197926D02*
X102000D01*
X101836D01*
Y198910D01*
X101672Y198746D01*
X73459Y197784D02*
Y198768D01*
X73951D01*
X74115Y198604D01*
Y198276D01*
X73951Y198112D01*
X73459D01*
X73787D02*
X74115Y197784D01*
X75099D02*
X74443D01*
X75099Y198440D01*
Y198604D01*
X74935Y198768D01*
X74607D01*
X74443Y198604D01*
X75427Y197620D02*
X76083D01*
X77067Y198604D02*
X76903Y198768D01*
X76575D01*
X76411Y198604D01*
Y197948D01*
X76575Y197784D01*
X76903D01*
X77067Y197948D01*
X78051Y198768D02*
X77395D01*
Y197784D01*
X78051D01*
X77395Y198276D02*
X77723D01*
X78379Y198768D02*
Y197784D01*
X79035D01*
X79363Y198768D02*
Y197784D01*
X80019D01*
X80347Y197620D02*
X81003D01*
X81331Y197784D02*
X81659D01*
X81495D01*
Y198768D01*
X81331Y198604D01*
X82151D02*
X82315Y198768D01*
X82643D01*
X82806Y198604D01*
Y197948D01*
X82643Y197784D01*
X82315D01*
X82151Y197948D01*
Y198604D01*
X37795Y180545D02*
X36811D01*
Y181036D01*
X36975Y181201D01*
X37303D01*
X37467Y181036D01*
Y180545D01*
Y180873D02*
X37795Y181201D01*
Y182184D02*
Y181528D01*
X37139Y182184D01*
X36975D01*
X36811Y182020D01*
Y181693D01*
X36975Y181528D01*
X37959Y182512D02*
Y183168D01*
X36975Y184152D02*
X36811Y183988D01*
Y183660D01*
X36975Y183496D01*
X37631D01*
X37795Y183660D01*
Y183988D01*
X37631Y184152D01*
X36811Y185136D02*
Y184480D01*
X37795D01*
Y185136D01*
X37303Y184480D02*
Y184808D01*
X36811Y185464D02*
X37795D01*
Y186120D01*
X36811Y186448D02*
X37795D01*
Y187104D01*
X37959Y187432D02*
Y188088D01*
X37631Y188416D02*
X37795Y188580D01*
Y188908D01*
X37631Y189072D01*
X36975D01*
X36811Y188908D01*
Y188580D01*
X36975Y188416D01*
X37139D01*
X37303Y188580D01*
Y189072D01*
X37551Y164293D02*
X36567D01*
Y164784D01*
X36731Y164948D01*
X37059D01*
X37223Y164784D01*
Y164293D01*
Y164620D02*
X37551Y164948D01*
Y165932D02*
Y165276D01*
X36895Y165932D01*
X36731D01*
X36567Y165768D01*
Y165440D01*
X36731Y165276D01*
X37715Y166260D02*
Y166916D01*
X36731Y167900D02*
X36567Y167736D01*
Y167408D01*
X36731Y167244D01*
X37387D01*
X37551Y167408D01*
Y167736D01*
X37387Y167900D01*
X36567Y168884D02*
Y168228D01*
X37551D01*
Y168884D01*
X37059Y168228D02*
Y168556D01*
X36567Y169212D02*
X37551D01*
Y169868D01*
X36567Y170196D02*
X37551D01*
Y170852D01*
X37715Y171180D02*
Y171836D01*
X36731Y172164D02*
X36567Y172328D01*
Y172656D01*
X36731Y172820D01*
X36895D01*
X37059Y172656D01*
X37223Y172820D01*
X37387D01*
X37551Y172656D01*
Y172328D01*
X37387Y172164D01*
X37223D01*
X37059Y172328D01*
X36895Y172164D01*
X36731D01*
X37059Y172328D02*
Y172656D01*
X37598Y147848D02*
X36614D01*
Y148340D01*
X36778Y148504D01*
X37106D01*
X37270Y148340D01*
Y147848D01*
Y148176D02*
X37598Y148504D01*
Y149488D02*
Y148832D01*
X36942Y149488D01*
X36778D01*
X36614Y149324D01*
Y148996D01*
X36778Y148832D01*
X37762Y149816D02*
Y150472D01*
X36778Y151456D02*
X36614Y151292D01*
Y150964D01*
X36778Y150800D01*
X37434D01*
X37598Y150964D01*
Y151292D01*
X37434Y151456D01*
X36614Y152440D02*
Y151784D01*
X37598D01*
Y152440D01*
X37106Y151784D02*
Y152112D01*
X36614Y152768D02*
X37598D01*
Y153424D01*
X36614Y153752D02*
X37598D01*
Y154408D01*
X37762Y154736D02*
Y155392D01*
X36614Y155719D02*
Y156375D01*
X36778D01*
X37434Y155719D01*
X37598D01*
X35375Y135420D02*
X34391D01*
Y135912D01*
X34555Y136076D01*
X34883D01*
X35047Y135912D01*
Y135420D01*
Y135748D02*
X35375Y136076D01*
Y137060D02*
Y136404D01*
X34719Y137060D01*
X34555D01*
X34391Y136896D01*
Y136568D01*
X34555Y136404D01*
X35539Y137388D02*
Y138044D01*
X34555Y139028D02*
X34391Y138864D01*
Y138536D01*
X34555Y138372D01*
X35211D01*
X35375Y138536D01*
Y138864D01*
X35211Y139028D01*
X34391Y140012D02*
Y139356D01*
X35375D01*
Y140012D01*
X34883Y139356D02*
Y139684D01*
X34391Y140340D02*
X35375D01*
Y140996D01*
X34391Y141324D02*
X35375D01*
Y141980D01*
X35539Y142308D02*
Y142964D01*
X34391Y143948D02*
X34555Y143620D01*
X34883Y143292D01*
X35211D01*
X35375Y143456D01*
Y143784D01*
X35211Y143948D01*
X35047D01*
X34883Y143784D01*
Y143292D01*
X35647Y119319D02*
X34663D01*
Y119811D01*
X34827Y119975D01*
X35155D01*
X35319Y119811D01*
Y119319D01*
Y119647D02*
X35647Y119975D01*
Y120958D02*
Y120302D01*
X34991Y120958D01*
X34827D01*
X34663Y120794D01*
Y120466D01*
X34827Y120302D01*
X35811Y121286D02*
Y121942D01*
X34827Y122926D02*
X34663Y122762D01*
Y122434D01*
X34827Y122270D01*
X35483D01*
X35647Y122434D01*
Y122762D01*
X35483Y122926D01*
X34663Y123910D02*
Y123254D01*
X35647D01*
Y123910D01*
X35155Y123254D02*
Y123582D01*
X34663Y124238D02*
X35647D01*
Y124894D01*
X34663Y125222D02*
X35647D01*
Y125878D01*
X35811Y126206D02*
Y126862D01*
X34663Y127846D02*
Y127190D01*
X35155D01*
X34991Y127518D01*
Y127682D01*
X35155Y127846D01*
X35483D01*
X35647Y127682D01*
Y127354D01*
X35483Y127190D01*
X41936Y108416D02*
Y109400D01*
X42428D01*
X42592Y109236D01*
Y108908D01*
X42428Y108744D01*
X41936D01*
X42264D02*
X42592Y108416D01*
X43576D02*
X42920D01*
X43576Y109072D01*
Y109236D01*
X43412Y109400D01*
X43084D01*
X42920Y109236D01*
X43904Y108252D02*
X44560D01*
X45544Y109236D02*
X45380Y109400D01*
X45052D01*
X44888Y109236D01*
Y108580D01*
X45052Y108416D01*
X45380D01*
X45544Y108580D01*
X46528Y109400D02*
X45872D01*
Y108416D01*
X46528D01*
X45872Y108908D02*
X46200D01*
X46856Y109400D02*
Y108416D01*
X47512D01*
X47840Y109400D02*
Y108416D01*
X48496D01*
X48824Y108252D02*
X49480D01*
X50300Y108416D02*
Y109400D01*
X49808Y108908D01*
X50464D01*
X99836Y195099D02*
Y196083D01*
X100328D01*
X100492Y195919D01*
Y195591D01*
X100328Y195427D01*
X99836D01*
X100164D02*
X100492Y195099D01*
X100820D02*
X101148D01*
X100984D01*
Y196083D01*
X100820Y195919D01*
X101640Y194935D02*
X102296D01*
X103280Y195919D02*
X103116Y196083D01*
X102788D01*
X102624Y195919D01*
Y195263D01*
X102788Y195099D01*
X103116D01*
X103280Y195263D01*
X104263Y196083D02*
X103607D01*
Y195099D01*
X104263D01*
X103607Y195591D02*
X103936D01*
X104592Y196083D02*
Y195099D01*
X105247D01*
X105575Y196083D02*
Y195099D01*
X106231D01*
X106559Y194935D02*
X107215D01*
X107543Y195099D02*
X107871D01*
X107707D01*
Y196083D01*
X107543Y195919D01*
X108363Y195099D02*
X108691D01*
X108527D01*
Y196083D01*
X108363Y195919D01*
X77896Y195250D02*
Y196234D01*
X78388D01*
X78552Y196070D01*
Y195742D01*
X78388Y195578D01*
X77896D01*
X78224D02*
X78552Y195250D01*
X78879D02*
X79207D01*
X79044D01*
Y196234D01*
X78879Y196070D01*
X79699Y195086D02*
X80355D01*
X81339Y196070D02*
X81175Y196234D01*
X80847D01*
X80683Y196070D01*
Y195414D01*
X80847Y195250D01*
X81175D01*
X81339Y195414D01*
X82323Y196234D02*
X81667D01*
Y195250D01*
X82323D01*
X81667Y195742D02*
X81995D01*
X82651Y196234D02*
Y195250D01*
X83307D01*
X83635Y196234D02*
Y195250D01*
X84291D01*
X84619Y195086D02*
X85275D01*
X85603Y195250D02*
X85931D01*
X85767D01*
Y196234D01*
X85603Y196070D01*
X86423D02*
X86587Y196234D01*
X86915D01*
X87079Y196070D01*
Y195414D01*
X86915Y195250D01*
X86587D01*
X86423Y195414D01*
Y196070D01*
X35046Y180688D02*
X34062D01*
Y181180D01*
X34226Y181344D01*
X34554D01*
X34718Y181180D01*
Y180688D01*
Y181016D02*
X35046Y181344D01*
Y181672D02*
Y182000D01*
Y181836D01*
X34062D01*
X34226Y181672D01*
X35210Y182492D02*
Y183148D01*
X34226Y184131D02*
X34062Y183967D01*
Y183640D01*
X34226Y183475D01*
X34882D01*
X35046Y183640D01*
Y183967D01*
X34882Y184131D01*
X34062Y185115D02*
Y184459D01*
X35046D01*
Y185115D01*
X34554Y184459D02*
Y184787D01*
X34062Y185443D02*
X35046D01*
Y186099D01*
X34062Y186427D02*
X35046D01*
Y187083D01*
X35210Y187411D02*
Y188067D01*
X34882Y188395D02*
X35046Y188559D01*
Y188887D01*
X34882Y189051D01*
X34226D01*
X34062Y188887D01*
Y188559D01*
X34226Y188395D01*
X34390D01*
X34554Y188559D01*
Y189051D01*
X34740Y164497D02*
X33756D01*
Y164989D01*
X33920Y165153D01*
X34248D01*
X34412Y164989D01*
Y164497D01*
Y164825D02*
X34740Y165153D01*
Y165480D02*
Y165808D01*
Y165645D01*
X33756D01*
X33920Y165480D01*
X34904Y166300D02*
Y166956D01*
X33920Y167940D02*
X33756Y167776D01*
Y167448D01*
X33920Y167284D01*
X34576D01*
X34740Y167448D01*
Y167776D01*
X34576Y167940D01*
X33756Y168924D02*
Y168268D01*
X34740D01*
Y168924D01*
X34248Y168268D02*
Y168596D01*
X33756Y169252D02*
X34740D01*
Y169908D01*
X33756Y170236D02*
X34740D01*
Y170892D01*
X34904Y171220D02*
Y171876D01*
X33920Y172204D02*
X33756Y172368D01*
Y172696D01*
X33920Y172860D01*
X34084D01*
X34248Y172696D01*
X34412Y172860D01*
X34576D01*
X34740Y172696D01*
Y172368D01*
X34576Y172204D01*
X34412D01*
X34248Y172368D01*
X34084Y172204D01*
X33920D01*
X34248Y172368D02*
Y172696D01*
X35148Y147613D02*
X34164D01*
Y148104D01*
X34328Y148268D01*
X34656D01*
X34820Y148104D01*
Y147613D01*
Y147941D02*
X35148Y148268D01*
Y148596D02*
Y148924D01*
Y148760D01*
X34164D01*
X34328Y148596D01*
X35312Y149416D02*
Y150072D01*
X34328Y151056D02*
X34164Y150892D01*
Y150564D01*
X34328Y150400D01*
X34984D01*
X35148Y150564D01*
Y150892D01*
X34984Y151056D01*
X34164Y152040D02*
Y151384D01*
X35148D01*
Y152040D01*
X34656Y151384D02*
Y151712D01*
X34164Y152368D02*
X35148D01*
Y153024D01*
X34164Y153352D02*
X35148D01*
Y154008D01*
X35312Y154336D02*
Y154992D01*
X34164Y155320D02*
Y155976D01*
X34328D01*
X34984Y155320D01*
X35148D01*
X37960Y135412D02*
X36977D01*
Y135904D01*
X37141Y136067D01*
X37468D01*
X37633Y135904D01*
Y135412D01*
Y135740D02*
X37960Y136067D01*
Y136396D02*
Y136723D01*
Y136559D01*
X36977D01*
X37141Y136396D01*
X38124Y137215D02*
Y137871D01*
X37141Y138855D02*
X36977Y138691D01*
Y138363D01*
X37141Y138199D01*
X37797D01*
X37960Y138363D01*
Y138691D01*
X37797Y138855D01*
X36977Y139839D02*
Y139183D01*
X37960D01*
Y139839D01*
X37468Y139183D02*
Y139511D01*
X36977Y140167D02*
X37960D01*
Y140823D01*
X36977Y141151D02*
X37960D01*
Y141807D01*
X38124Y142135D02*
Y142791D01*
X36977Y143775D02*
X37141Y143447D01*
X37468Y143119D01*
X37797D01*
X37960Y143283D01*
Y143611D01*
X37797Y143775D01*
X37633D01*
X37468Y143611D01*
Y143119D01*
X32835Y119537D02*
X31851D01*
Y120029D01*
X32015Y120193D01*
X32343D01*
X32507Y120029D01*
Y119537D01*
Y119865D02*
X32835Y120193D01*
Y120521D02*
Y120849D01*
Y120685D01*
X31851D01*
X32015Y120521D01*
X32999Y121341D02*
Y121996D01*
X32015Y122980D02*
X31851Y122816D01*
Y122488D01*
X32015Y122325D01*
X32671D01*
X32835Y122488D01*
Y122816D01*
X32671Y122980D01*
X31851Y123964D02*
Y123308D01*
X32835D01*
Y123964D01*
X32343Y123308D02*
Y123636D01*
X31851Y124292D02*
X32835D01*
Y124948D01*
X31851Y125276D02*
X32835D01*
Y125932D01*
X32999Y126260D02*
Y126916D01*
X31851Y127900D02*
Y127244D01*
X32343D01*
X32179Y127572D01*
Y127736D01*
X32343Y127900D01*
X32671D01*
X32835Y127736D01*
Y127408D01*
X32671Y127244D01*
X35228Y93055D02*
Y94039D01*
X35720D01*
X35884Y93875D01*
Y93547D01*
X35720Y93383D01*
X35228D01*
X35557D02*
X35884Y93055D01*
X36212D02*
X36540D01*
X36376D01*
Y94039D01*
X36212Y93875D01*
X37032Y92891D02*
X37688D01*
X38672Y93875D02*
X38508Y94039D01*
X38180D01*
X38016Y93875D01*
Y93219D01*
X38180Y93055D01*
X38508D01*
X38672Y93219D01*
X39656Y94039D02*
X39000D01*
Y93055D01*
X39656D01*
X39000Y93547D02*
X39328D01*
X39984Y94039D02*
Y93055D01*
X40640D01*
X40968Y94039D02*
Y93055D01*
X41624D01*
X41952Y92891D02*
X42608D01*
X43428Y93055D02*
Y94039D01*
X42936Y93547D01*
X43592D01*
X86834Y201306D02*
X86670Y201470D01*
X86342D01*
X86178Y201306D01*
Y200650D01*
X86342Y200486D01*
X86670D01*
X86834Y200650D01*
X87162Y200486D02*
X87490D01*
X87326D01*
Y201470D01*
X87162Y201306D01*
X87982Y200322D02*
X88638D01*
X89622Y201306D02*
X89458Y201470D01*
X89130D01*
X88966Y201306D01*
Y200650D01*
X89130Y200486D01*
X89458D01*
X89622Y200650D01*
X90606Y201470D02*
X89950D01*
Y200486D01*
X90606D01*
X89950Y200978D02*
X90278D01*
X90934Y201470D02*
Y200486D01*
X91590D01*
X91918Y201470D02*
Y200486D01*
X92574D01*
X92902Y200322D02*
X93558D01*
X93886Y200486D02*
X94214D01*
X94050D01*
Y201470D01*
X93886Y201306D01*
X94706Y200486D02*
X95034D01*
X94870D01*
Y201470D01*
X94706Y201306D01*
X71419Y201154D02*
X71255Y201318D01*
X70927D01*
X70763Y201154D01*
Y200498D01*
X70927Y200334D01*
X71255D01*
X71419Y200498D01*
X71747Y200334D02*
X72075D01*
X71911D01*
Y201318D01*
X71747Y201154D01*
X72567Y200170D02*
X73223D01*
X74207Y201154D02*
X74043Y201318D01*
X73715D01*
X73551Y201154D01*
Y200498D01*
X73715Y200334D01*
X74043D01*
X74207Y200498D01*
X75191Y201318D02*
X74535D01*
Y200334D01*
X75191D01*
X74535Y200826D02*
X74863D01*
X75519Y201318D02*
Y200334D01*
X76175D01*
X76503Y201318D02*
Y200334D01*
X77159D01*
X77487Y200170D02*
X78143D01*
X78471Y200334D02*
X78799D01*
X78635D01*
Y201318D01*
X78471Y201154D01*
X79291D02*
X79455Y201318D01*
X79783D01*
X79947Y201154D01*
Y200498D01*
X79783Y200334D01*
X79455D01*
X79291Y200498D01*
Y201154D01*
X31843Y181527D02*
X31679Y181363D01*
Y181035D01*
X31843Y180871D01*
X32499D01*
X32663Y181035D01*
Y181363D01*
X32499Y181527D01*
X32663Y181855D02*
Y182183D01*
Y182019D01*
X31679D01*
X31843Y181855D01*
X32827Y182675D02*
Y183331D01*
X31843Y184315D02*
X31679Y184151D01*
Y183823D01*
X31843Y183659D01*
X32499D01*
X32663Y183823D01*
Y184151D01*
X32499Y184315D01*
X31679Y185299D02*
Y184643D01*
X32663D01*
Y185299D01*
X32171Y184643D02*
Y184971D01*
X31679Y185627D02*
X32663D01*
Y186283D01*
X31679Y186610D02*
X32663D01*
Y187267D01*
X32827Y187594D02*
Y188250D01*
X32499Y188578D02*
X32663Y188742D01*
Y189070D01*
X32499Y189234D01*
X31843D01*
X31679Y189070D01*
Y188742D01*
X31843Y188578D01*
X32007D01*
X32171Y188742D01*
Y189234D01*
X31542Y165335D02*
X31378Y165171D01*
Y164843D01*
X31542Y164679D01*
X32198D01*
X32362Y164843D01*
Y165171D01*
X32198Y165335D01*
X32362Y165663D02*
Y165991D01*
Y165827D01*
X31378D01*
X31542Y165663D01*
X32526Y166483D02*
Y167139D01*
X31542Y168123D02*
X31378Y167959D01*
Y167631D01*
X31542Y167467D01*
X32198D01*
X32362Y167631D01*
Y167959D01*
X32198Y168123D01*
X31378Y169107D02*
Y168451D01*
X32362D01*
Y169107D01*
X31870Y168451D02*
Y168779D01*
X31378Y169435D02*
X32362D01*
Y170091D01*
X31378Y170419D02*
X32362D01*
Y171075D01*
X32526Y171403D02*
Y172059D01*
X31542Y172387D02*
X31378Y172551D01*
Y172879D01*
X31542Y173043D01*
X31706D01*
X31870Y172879D01*
X32034Y173043D01*
X32198D01*
X32362Y172879D01*
Y172551D01*
X32198Y172387D01*
X32034D01*
X31870Y172551D01*
X31706Y172387D01*
X31542D01*
X31870Y172551D02*
Y172879D01*
X31704Y148677D02*
X31540Y148513D01*
Y148185D01*
X31704Y148021D01*
X32360D01*
X32524Y148185D01*
Y148513D01*
X32360Y148677D01*
X32524Y149005D02*
Y149332D01*
Y149169D01*
X31540D01*
X31704Y149005D01*
X32688Y149825D02*
Y150480D01*
X31704Y151464D02*
X31540Y151300D01*
Y150972D01*
X31704Y150808D01*
X32360D01*
X32524Y150972D01*
Y151300D01*
X32360Y151464D01*
X31540Y152448D02*
Y151792D01*
X32524D01*
Y152448D01*
X32032Y151792D02*
Y152120D01*
X31540Y152776D02*
X32524D01*
Y153432D01*
X31540Y153760D02*
X32524D01*
Y154416D01*
X32688Y154744D02*
Y155400D01*
X31540Y155728D02*
Y156384D01*
X31704D01*
X32360Y155728D01*
X32524D01*
X32015Y136158D02*
X31851Y135994D01*
Y135666D01*
X32015Y135502D01*
X32671D01*
X32835Y135666D01*
Y135994D01*
X32671Y136158D01*
X32835Y136486D02*
Y136814D01*
Y136650D01*
X31851D01*
X32015Y136486D01*
X32999Y137306D02*
Y137962D01*
X32015Y138946D02*
X31851Y138782D01*
Y138454D01*
X32015Y138290D01*
X32671D01*
X32835Y138454D01*
Y138782D01*
X32671Y138946D01*
X31851Y139930D02*
Y139274D01*
X32835D01*
Y139930D01*
X32343Y139274D02*
Y139602D01*
X31851Y140258D02*
X32835D01*
Y140914D01*
X31851Y141242D02*
X32835D01*
Y141898D01*
X32999Y142226D02*
Y142882D01*
X31851Y143866D02*
X32015Y143538D01*
X32343Y143210D01*
X32671D01*
X32835Y143374D01*
Y143702D01*
X32671Y143866D01*
X32507D01*
X32343Y143702D01*
Y143210D01*
X37367Y120056D02*
X37203Y119893D01*
Y119565D01*
X37367Y119401D01*
X38023D01*
X38187Y119565D01*
Y119893D01*
X38023Y120056D01*
X38187Y120385D02*
Y120712D01*
Y120548D01*
X37203D01*
X37367Y120385D01*
X38351Y121204D02*
Y121860D01*
X37367Y122844D02*
X37203Y122680D01*
Y122352D01*
X37367Y122188D01*
X38023D01*
X38187Y122352D01*
Y122680D01*
X38023Y122844D01*
X37203Y123828D02*
Y123172D01*
X38187D01*
Y123828D01*
X37695Y123172D02*
Y123500D01*
X37203Y124156D02*
X38187D01*
Y124812D01*
X37203Y125140D02*
X38187D01*
Y125796D01*
X38351Y126124D02*
Y126780D01*
X37203Y127764D02*
Y127108D01*
X37695D01*
X37531Y127436D01*
Y127600D01*
X37695Y127764D01*
X38023D01*
X38187Y127600D01*
Y127272D01*
X38023Y127108D01*
X46951Y91517D02*
X46788Y91681D01*
X46459D01*
X46295Y91517D01*
Y90861D01*
X46459Y90697D01*
X46788D01*
X46951Y90861D01*
X47280Y90697D02*
X47607D01*
X47444D01*
Y91681D01*
X47280Y91517D01*
X48099Y90533D02*
X48755D01*
X49739Y91517D02*
X49575Y91681D01*
X49247D01*
X49083Y91517D01*
Y90861D01*
X49247Y90697D01*
X49575D01*
X49739Y90861D01*
X50723Y91681D02*
X50067D01*
Y90697D01*
X50723D01*
X50067Y91189D02*
X50395D01*
X51051Y91681D02*
Y90697D01*
X51707D01*
X52035Y91681D02*
Y90697D01*
X52691D01*
X53019Y90533D02*
X53675D01*
X54495Y90697D02*
Y91681D01*
X54003Y91189D01*
X54659D01*
X66029Y92800D02*
Y93784D01*
X66521D01*
X66685Y93621D01*
Y93292D01*
X66521Y93129D01*
X66029D01*
X66357D02*
X66685Y92800D01*
X67669D02*
X67013D01*
X67669Y93457D01*
Y93621D01*
X67505Y93784D01*
X67177D01*
X67013Y93621D01*
X67997Y92637D02*
X68653D01*
X69637Y93621D02*
X69473Y93784D01*
X69145D01*
X68981Y93621D01*
Y92965D01*
X69145Y92800D01*
X69473D01*
X69637Y92965D01*
X70621Y93784D02*
X69965D01*
Y92800D01*
X70621D01*
X69965Y93292D02*
X70293D01*
X70949Y93784D02*
Y92800D01*
X71605D01*
X71933Y93784D02*
Y92800D01*
X72589D01*
X72917Y92637D02*
X73573D01*
X73901Y93621D02*
X74065Y93784D01*
X74393D01*
X74557Y93621D01*
Y93457D01*
X74393Y93292D01*
X74229D01*
X74393D01*
X74557Y93129D01*
Y92965D01*
X74393Y92800D01*
X74065D01*
X73901Y92965D01*
X80535Y90711D02*
Y91695D01*
X81027D01*
X81191Y91531D01*
Y91203D01*
X81027Y91039D01*
X80535D01*
X80863D02*
X81191Y90711D01*
X82175D02*
X81519D01*
X82175Y91367D01*
Y91531D01*
X82011Y91695D01*
X81683D01*
X81519Y91531D01*
X82503Y90547D02*
X83159D01*
X84143Y91531D02*
X83979Y91695D01*
X83651D01*
X83487Y91531D01*
Y90875D01*
X83651Y90711D01*
X83979D01*
X84143Y90875D01*
X85127Y91695D02*
X84471D01*
Y90711D01*
X85127D01*
X84471Y91203D02*
X84799D01*
X85455Y91695D02*
Y90711D01*
X86111D01*
X86439Y91695D02*
Y90711D01*
X87095D01*
X87423Y90547D02*
X88079D01*
X89063Y90711D02*
X88407D01*
X89063Y91367D01*
Y91531D01*
X88899Y91695D01*
X88571D01*
X88407Y91531D01*
X103145Y93919D02*
Y94903D01*
X103637D01*
X103801Y94739D01*
Y94411D01*
X103637Y94247D01*
X103145D01*
X103473D02*
X103801Y93919D01*
X104785D02*
X104129D01*
X104785Y94575D01*
Y94739D01*
X104621Y94903D01*
X104293D01*
X104129Y94739D01*
X105113Y93756D02*
X105769D01*
X106753Y94739D02*
X106589Y94903D01*
X106261D01*
X106097Y94739D01*
Y94083D01*
X106261Y93919D01*
X106589D01*
X106753Y94083D01*
X107737Y94903D02*
X107081D01*
Y93919D01*
X107737D01*
X107081Y94411D02*
X107409D01*
X108065Y94903D02*
Y93919D01*
X108721D01*
X109048Y94903D02*
Y93919D01*
X109704D01*
X110032Y93756D02*
X110688D01*
X111016Y93919D02*
X111344D01*
X111180D01*
Y94903D01*
X111016Y94739D01*
X60029Y108532D02*
Y109516D01*
X60521D01*
X60685Y109352D01*
Y109024D01*
X60521Y108860D01*
X60029D01*
X60357D02*
X60685Y108532D01*
X61013D02*
X61341D01*
X61177D01*
Y109516D01*
X61013Y109352D01*
X61833Y108368D02*
X62489D01*
X63473Y109352D02*
X63309Y109516D01*
X62981D01*
X62817Y109352D01*
Y108696D01*
X62981Y108532D01*
X63309D01*
X63473Y108696D01*
X64457Y109516D02*
X63801D01*
Y108532D01*
X64457D01*
X63801Y109024D02*
X64129D01*
X64785Y109516D02*
Y108532D01*
X65441D01*
X65769Y109516D02*
Y108532D01*
X66425D01*
X66753Y108368D02*
X67409D01*
X67737Y109352D02*
X67901Y109516D01*
X68229D01*
X68393Y109352D01*
Y109188D01*
X68229Y109024D01*
X68065D01*
X68229D01*
X68393Y108860D01*
Y108696D01*
X68229Y108532D01*
X67901D01*
X67737Y108696D01*
X74173Y108837D02*
Y109821D01*
X74665D01*
X74829Y109657D01*
Y109329D01*
X74665Y109165D01*
X74173D01*
X74501D02*
X74829Y108837D01*
X75157D02*
X75485D01*
X75321D01*
Y109821D01*
X75157Y109657D01*
X75977Y108673D02*
X76633D01*
X77617Y109657D02*
X77453Y109821D01*
X77125D01*
X76961Y109657D01*
Y109001D01*
X77125Y108837D01*
X77453D01*
X77617Y109001D01*
X78601Y109821D02*
X77945D01*
Y108837D01*
X78601D01*
X77945Y109329D02*
X78273D01*
X78929Y109821D02*
Y108837D01*
X79585D01*
X79913Y109821D02*
Y108837D01*
X80569D01*
X80897Y108673D02*
X81553D01*
X82537Y108837D02*
X81881D01*
X82537Y109493D01*
Y109657D01*
X82373Y109821D01*
X82045D01*
X81881Y109657D01*
X95830Y91495D02*
Y92479D01*
X96322D01*
X96486Y92315D01*
Y91987D01*
X96322Y91823D01*
X95830D01*
X96158D02*
X96486Y91495D01*
X96813D02*
X97141D01*
X96978D01*
Y92479D01*
X96813Y92315D01*
X97633Y91331D02*
X98289D01*
X99273Y92315D02*
X99109Y92479D01*
X98781D01*
X98617Y92315D01*
Y91659D01*
X98781Y91495D01*
X99109D01*
X99273Y91659D01*
X100257Y92479D02*
X99601D01*
Y91495D01*
X100257D01*
X99601Y91987D02*
X99929D01*
X100585Y92479D02*
Y91495D01*
X101241D01*
X101569Y92479D02*
Y91495D01*
X102225D01*
X102553Y91331D02*
X103209D01*
X103537Y91495D02*
X103865D01*
X103701D01*
Y92479D01*
X103537Y92315D01*
X55517Y93687D02*
X55353Y93851D01*
X55025D01*
X54861Y93687D01*
Y93031D01*
X55025Y92867D01*
X55353D01*
X55517Y93031D01*
X55845Y92867D02*
X56173D01*
X56009D01*
Y93851D01*
X55845Y93687D01*
X56665Y92703D02*
X57321D01*
X58305Y93687D02*
X58141Y93851D01*
X57813D01*
X57649Y93687D01*
Y93031D01*
X57813Y92867D01*
X58141D01*
X58305Y93031D01*
X59289Y93851D02*
X58633D01*
Y92867D01*
X59289D01*
X58633Y93359D02*
X58961D01*
X59617Y93851D02*
Y92867D01*
X60273D01*
X60601Y93851D02*
Y92867D01*
X61257D01*
X61585Y92703D02*
X62241D01*
X62569Y93687D02*
X62733Y93851D01*
X63061D01*
X63225Y93687D01*
Y93523D01*
X63061Y93359D01*
X62897D01*
X63061D01*
X63225Y93195D01*
Y93031D01*
X63061Y92867D01*
X62733D01*
X62569Y93031D01*
X87992Y94770D02*
X87828Y94934D01*
X87500D01*
X87336Y94770D01*
Y94115D01*
X87500Y93950D01*
X87828D01*
X87992Y94115D01*
X88320Y93950D02*
X88648D01*
X88484D01*
Y94934D01*
X88320Y94770D01*
X89140Y93787D02*
X89796D01*
X90780Y94770D02*
X90615Y94934D01*
X90288D01*
X90124Y94770D01*
Y94115D01*
X90288Y93950D01*
X90615D01*
X90780Y94115D01*
X91764Y94934D02*
X91107D01*
Y93950D01*
X91764D01*
X91107Y94442D02*
X91435D01*
X92091Y94934D02*
Y93950D01*
X92747D01*
X93075Y94934D02*
Y93950D01*
X93731D01*
X94059Y93787D02*
X94715D01*
X95699Y93950D02*
X95043D01*
X95699Y94607D01*
Y94770D01*
X95535Y94934D01*
X95207D01*
X95043Y94770D01*
X113250Y95498D02*
X113086Y95662D01*
X112758D01*
X112594Y95498D01*
Y94842D01*
X112758Y94678D01*
X113086D01*
X113250Y94842D01*
X113578Y94678D02*
X113906D01*
X113742D01*
Y95662D01*
X113578Y95498D01*
X114398Y94514D02*
X115054D01*
X116038Y95498D02*
X115874Y95662D01*
X115546D01*
X115382Y95498D01*
Y94842D01*
X115546Y94678D01*
X115874D01*
X116038Y94842D01*
X117022Y95662D02*
X116366D01*
Y94678D01*
X117022D01*
X116366Y95170D02*
X116694D01*
X117350Y95662D02*
Y94678D01*
X118006D01*
X118334Y95662D02*
Y94678D01*
X118990D01*
X119318Y94514D02*
X119974D01*
X120302Y94678D02*
X120630D01*
X120466D01*
Y95662D01*
X120302Y95498D01*
M02*
