G04*
G04 #@! TF.GenerationSoftware,Altium Limited,Altium Designer,21.6.4 (81)*
G04*
G04 Layer_Color=255*
%FSLAX25Y25*%
%MOIN*%
G70*
G04*
G04 #@! TF.SameCoordinates,D230F567-8F14-4DE2-9EB9-46B1BD9AA4B9*
G04*
G04*
G04 #@! TF.FilePolarity,Positive*
G04*
G01*
G75*
%ADD35C,0.06299*%
%ADD36C,0.09449*%
%ADD37C,0.05512*%
%ADD38C,0.17717*%
%ADD39C,0.11024*%
%ADD40C,0.12008*%
D35*
X311403Y167554D02*
D03*
Y217554D02*
D03*
X311254Y133366D02*
D03*
Y83366D02*
D03*
D36*
X297899Y160566D02*
D03*
Y224543D02*
D03*
X297750Y140354D02*
D03*
Y76378D02*
D03*
D37*
X275419Y165547D02*
D03*
Y174562D02*
D03*
Y210546D02*
D03*
Y219562D02*
D03*
X294395Y178499D02*
D03*
X301403Y182515D02*
D03*
X294395Y186531D02*
D03*
X301403Y190547D02*
D03*
X294395Y194562D02*
D03*
X301403Y198578D02*
D03*
X294395Y202594D02*
D03*
X301403Y206610D02*
D03*
X301254Y122421D02*
D03*
X294246Y118406D02*
D03*
X301254Y114390D02*
D03*
X294246Y110374D02*
D03*
X301254Y106358D02*
D03*
X294246Y102343D02*
D03*
X301254Y98327D02*
D03*
X294246Y94311D02*
D03*
X275270Y135374D02*
D03*
Y126358D02*
D03*
Y90374D02*
D03*
Y81358D02*
D03*
D38*
X20000Y48127D02*
D03*
X320000D02*
D03*
Y250209D02*
D03*
X20000D02*
D03*
D39*
X239797Y82228D02*
D03*
X223261D02*
D03*
X206726D02*
D03*
X190190D02*
D03*
X173655D02*
D03*
X157120D02*
D03*
X48862Y213293D02*
D03*
X65398D02*
D03*
X81933D02*
D03*
X98468D02*
D03*
X115004D02*
D03*
X131539D02*
D03*
X131154Y82228D02*
D03*
X114618D02*
D03*
X98083D02*
D03*
X81547D02*
D03*
X65012D02*
D03*
X48476D02*
D03*
D40*
X157120Y53488D02*
D03*
X239797D02*
D03*
X131539Y242033D02*
D03*
X48862D02*
D03*
X48476Y53488D02*
D03*
X131154D02*
D03*
M02*
