M48
;Layer_Color=9474304
;FILE_FORMAT=2:5
INCH,TZ
;TYPE=PLATED
T1F00S00C0.00984
T2F00S00C0.03543
T3F00S00C0.06299
T4F00S00C0.07283
T5F00S00C0.12008
T6F00S00C0.17717
;TYPE=NON_PLATED
T7F00S00C0.12598
%
T01
X33130Y59787
X72500
X111870
X190610
X229980
X269350
X249665Y99157
X269350Y138527
X229980
Y217267
X269350
X190610
X151240
X158115Y187021
X158293Y176207
X154698Y168667
X147940Y168630
X141748Y168441
X150328Y159386
X150150Y150976
X151240Y138527
X190610
X108215Y149146
X105981Y154231
X129107Y176883
X130165Y197190
X131555Y99157
T02
X275270Y81358
Y90374
X294246Y94311
Y102343
Y110374
Y118406
X301254Y122421
Y114390
Y106358
Y98327
X275270Y126358
Y135374
X275419Y165547
Y174562
X294395Y178499
Y186531
Y194562
Y202594
X301403Y198578
Y190547
Y182515
Y206610
X275419Y210546
Y219562
T03
X297750Y76378
Y140354
X297899Y160566
Y224543
T04
X48476Y82228
X65012
X81547
X98083
X114618
X131154
X157120
X173655
X190190
X206726
X223261
X239797
X131539Y213293
X115004
X98468
X81933
X65398
X48862
T05
X48476Y53488
X131154
X157120
X239797
X131539Y242033
X48862
T06
X20000Y48127
X320000
Y250209
X20000
T07
X311254Y83366
Y133366
X311403Y167554
Y217554
M30
