G04*
G04 #@! TF.GenerationSoftware,Altium Limited,Altium Designer,21.6.4 (81)*
G04*
G04 Layer_Color=8421504*
%FSLAX25Y25*%
%MOIN*%
G70*
G04*
G04 #@! TF.SameCoordinates,D230F567-8F14-4DE2-9EB9-46B1BD9AA4B9*
G04*
G04*
G04 #@! TF.FilePolarity,Positive*
G04*
G01*
G75*
%ADD18R,0.05394X0.01181*%
%ADD19R,0.02756X0.03347*%
%ADD20R,0.03347X0.02756*%
%ADD21R,0.19134X0.13228*%
%ADD22R,0.05512X0.05472*%
%ADD23R,0.04528X0.05315*%
%ADD24R,0.03740X0.03740*%
%ADD25R,0.04921X0.02953*%
%ADD26R,0.03740X0.03740*%
%ADD27R,0.07441X0.05000*%
D18*
X113981Y122258D02*
D03*
Y124226D02*
D03*
Y126195D02*
D03*
Y128163D02*
D03*
Y130132D02*
D03*
Y132100D02*
D03*
Y134069D02*
D03*
Y136037D02*
D03*
Y138006D02*
D03*
Y139974D02*
D03*
Y141943D02*
D03*
Y143911D02*
D03*
Y145880D02*
D03*
Y147848D02*
D03*
Y149817D02*
D03*
Y151785D02*
D03*
Y153754D02*
D03*
Y155722D02*
D03*
Y157691D02*
D03*
Y159659D02*
D03*
Y161628D02*
D03*
Y163596D02*
D03*
Y165565D02*
D03*
Y167533D02*
D03*
X86619Y122258D02*
D03*
Y124226D02*
D03*
Y126195D02*
D03*
Y128163D02*
D03*
Y130132D02*
D03*
Y132100D02*
D03*
Y134069D02*
D03*
Y136037D02*
D03*
Y138006D02*
D03*
Y139974D02*
D03*
Y141943D02*
D03*
Y143911D02*
D03*
Y145880D02*
D03*
Y147848D02*
D03*
Y149817D02*
D03*
Y151785D02*
D03*
Y153754D02*
D03*
Y155722D02*
D03*
Y157691D02*
D03*
Y159659D02*
D03*
Y161628D02*
D03*
Y163596D02*
D03*
Y165565D02*
D03*
Y167533D02*
D03*
D19*
X105027Y191135D02*
D03*
X98531D02*
D03*
X124588Y151737D02*
D03*
X131085D02*
D03*
X126259Y200078D02*
D03*
X119763D02*
D03*
X131175Y162260D02*
D03*
X137671D02*
D03*
X120471Y162248D02*
D03*
X126968D02*
D03*
D20*
X173655Y98897D02*
D03*
Y92401D02*
D03*
X190190Y98897D02*
D03*
Y92401D02*
D03*
X206726Y98897D02*
D03*
Y92401D02*
D03*
X223261Y98897D02*
D03*
Y92401D02*
D03*
X239797Y98897D02*
D03*
Y92401D02*
D03*
X165253Y145900D02*
D03*
Y152396D02*
D03*
X165326Y163081D02*
D03*
Y156585D02*
D03*
X166120Y190173D02*
D03*
Y183677D02*
D03*
X165933Y172934D02*
D03*
Y179430D02*
D03*
D21*
X119770Y187215D02*
D03*
D22*
X135448Y190582D02*
D03*
Y183337D02*
D03*
D23*
X138021Y150408D02*
D03*
Y142928D02*
D03*
D24*
X123966Y145985D02*
D03*
X129872D02*
D03*
X123828Y136797D02*
D03*
X129733D02*
D03*
X123925Y141519D02*
D03*
X129830D02*
D03*
X138107Y198692D02*
D03*
X144012D02*
D03*
X160069Y155041D02*
D03*
X154163D02*
D03*
X160595Y181264D02*
D03*
X154689D02*
D03*
D25*
X254874Y156160D02*
D03*
Y148286D02*
D03*
X79124Y181814D02*
D03*
Y189688D02*
D03*
X85324Y181814D02*
D03*
Y189688D02*
D03*
X61938Y165381D02*
D03*
Y173255D02*
D03*
X55738Y165481D02*
D03*
Y173355D02*
D03*
X56070Y136303D02*
D03*
Y144177D02*
D03*
X62763Y136303D02*
D03*
Y144177D02*
D03*
X99358Y105484D02*
D03*
Y97610D02*
D03*
X85048Y105695D02*
D03*
Y97821D02*
D03*
X64040Y105172D02*
D03*
Y97298D02*
D03*
X45848Y105643D02*
D03*
Y97769D02*
D03*
X39155Y105643D02*
D03*
Y97769D02*
D03*
X254874Y187522D02*
D03*
Y179648D02*
D03*
X104820Y177203D02*
D03*
Y185077D02*
D03*
X98619Y177203D02*
D03*
Y185077D02*
D03*
X61501Y181064D02*
D03*
Y188938D02*
D03*
X55300Y181164D02*
D03*
Y189038D02*
D03*
X55531Y149961D02*
D03*
Y157835D02*
D03*
X62255Y149831D02*
D03*
Y157705D02*
D03*
X51037Y127019D02*
D03*
Y119145D02*
D03*
X57730Y127019D02*
D03*
Y119145D02*
D03*
X106644Y105518D02*
D03*
Y97644D02*
D03*
X78355Y105695D02*
D03*
Y97821D02*
D03*
X70482Y105514D02*
D03*
Y97640D02*
D03*
D26*
X170303Y151954D02*
D03*
Y146049D02*
D03*
Y162859D02*
D03*
Y156954D02*
D03*
X171114Y190026D02*
D03*
Y184121D02*
D03*
X171055Y178958D02*
D03*
Y173052D02*
D03*
X73317Y182601D02*
D03*
Y188507D02*
D03*
X49935Y166333D02*
D03*
Y172239D02*
D03*
X50170Y143430D02*
D03*
Y137524D02*
D03*
X90982Y104629D02*
D03*
Y98724D02*
D03*
X51782Y104577D02*
D03*
Y98671D02*
D03*
X58091Y104816D02*
D03*
Y98911D02*
D03*
X92812Y177990D02*
D03*
Y183896D02*
D03*
X49538Y188054D02*
D03*
Y182149D02*
D03*
X49451Y150872D02*
D03*
Y156778D02*
D03*
X63665Y125953D02*
D03*
Y120047D02*
D03*
X112944Y104919D02*
D03*
Y99014D02*
D03*
D27*
X177942Y168228D02*
D03*
Y178227D02*
D03*
Y188227D02*
D03*
Y158228D02*
D03*
Y148228D02*
D03*
X232233Y168228D02*
D03*
Y178227D02*
D03*
Y188227D02*
D03*
Y158228D02*
D03*
Y148228D02*
D03*
M02*
