G04*
G04 #@! TF.GenerationSoftware,Altium Limited,Altium Designer,21.6.4 (81)*
G04*
G04 Layer_Color=32768*
%FSLAX25Y25*%
%MOIN*%
G70*
G04*
G04 #@! TF.SameCoordinates,D230F567-8F14-4DE2-9EB9-46B1BD9AA4B9*
G04*
G04*
G04 #@! TF.FilePolarity,Positive*
G04*
G01*
G75*
%ADD14C,0.00394*%
%ADD43C,0.00197*%
D14*
X100300Y142927D02*
Y146864D01*
X98332Y144896D02*
X102269D01*
X101779Y189560D02*
Y192709D01*
X100204Y191135D02*
X103354D01*
X172080Y95649D02*
X175230D01*
X173655Y94075D02*
Y97224D01*
X188616Y95649D02*
X191765D01*
X190190Y94075D02*
Y97224D01*
X205151Y95649D02*
X208301D01*
X206726Y94075D02*
Y97224D01*
X221687Y95649D02*
X224836D01*
X223261Y94075D02*
Y97224D01*
X238222Y95649D02*
X241372D01*
X239797Y94075D02*
Y97224D01*
X127836Y150163D02*
Y153312D01*
X126262Y151737D02*
X129411D01*
X123011Y198503D02*
Y201653D01*
X121436Y200078D02*
X124585D01*
X134423Y160685D02*
Y163835D01*
X132849Y162260D02*
X135998D01*
X123720Y160673D02*
Y163823D01*
X122145Y162248D02*
X125294D01*
X138021Y144700D02*
Y148637D01*
X136053Y146668D02*
X139990D01*
X126919Y144410D02*
Y147559D01*
X125344Y145985D02*
X128494D01*
X126780Y135222D02*
Y138372D01*
X125206Y136797D02*
X128355D01*
X126877Y139944D02*
Y143094D01*
X125303Y141519D02*
X128452D01*
X141060Y197117D02*
Y200267D01*
X139485Y198692D02*
X142634D01*
X254874Y150254D02*
Y154191D01*
X252905Y152223D02*
X256842D01*
X165253Y147573D02*
Y150723D01*
X163678Y149148D02*
X166828D01*
X170303Y147426D02*
Y150576D01*
X168728Y149001D02*
X171878D01*
X170303Y158331D02*
Y161481D01*
X168728Y159906D02*
X171878D01*
X165326Y158258D02*
Y161408D01*
X163751Y159833D02*
X166901D01*
X155541Y155041D02*
X158691D01*
X157116Y153466D02*
Y156616D01*
X166120Y185350D02*
Y188499D01*
X164545Y186925D02*
X167695D01*
X171114Y185499D02*
Y188648D01*
X169539Y187074D02*
X172688D01*
X171055Y174430D02*
Y177580D01*
X169480Y176005D02*
X172630D01*
X165933Y174607D02*
Y177756D01*
X164358Y176182D02*
X167508D01*
X156067Y181264D02*
X159217D01*
X157642Y179689D02*
Y182839D01*
X266954Y151905D02*
X336836D01*
Y233204D01*
X266954D02*
X336836D01*
X266954Y151905D02*
Y233204D01*
X79124Y183782D02*
Y187720D01*
X77155Y185751D02*
X81092D01*
X85324Y183782D02*
Y187720D01*
X83356Y185751D02*
X87293D01*
X71742Y185554D02*
X74891D01*
X73317Y183979D02*
Y187129D01*
X61938Y167349D02*
Y171286D01*
X59969Y169318D02*
X63906D01*
X48360Y169286D02*
X51510D01*
X49935Y167711D02*
Y170861D01*
X55738Y167449D02*
Y171386D01*
X53769Y169418D02*
X57706D01*
X56070Y138271D02*
Y142208D01*
X54102Y140240D02*
X58039D01*
X62763Y138271D02*
Y142208D01*
X60795Y140240D02*
X64732D01*
X48595Y140477D02*
X51745D01*
X50170Y138902D02*
Y142052D01*
X99358Y99578D02*
Y103515D01*
X97389Y101547D02*
X101326D01*
X89408Y101677D02*
X92557D01*
X90982Y100102D02*
Y103251D01*
X85048Y99790D02*
Y103727D01*
X83079Y101759D02*
X87016D01*
X64040Y99266D02*
Y103203D01*
X62072Y101234D02*
X66009D01*
X45848Y99737D02*
Y103674D01*
X43879Y101706D02*
X47816D01*
X50208Y101624D02*
X53357D01*
X51782Y100049D02*
Y103199D01*
X39155Y99737D02*
Y103674D01*
X37186Y101706D02*
X41123D01*
X252905Y183584D02*
X256842D01*
X254874Y181616D02*
Y185553D01*
X56516Y101863D02*
X59666D01*
X58091Y100288D02*
Y103438D01*
X104820Y179171D02*
Y183108D01*
X102851Y181140D02*
X106788D01*
X98619Y179171D02*
Y183108D01*
X96650Y181140D02*
X100587D01*
X91237Y180943D02*
X94387D01*
X92812Y179368D02*
Y182518D01*
X47963Y185101D02*
X51113D01*
X49538Y183526D02*
Y186676D01*
X61501Y183033D02*
Y186970D01*
X59532Y185001D02*
X63469D01*
X55300Y183133D02*
Y187070D01*
X53332Y185101D02*
X57269D01*
X55531Y151930D02*
Y155867D01*
X53563Y153899D02*
X57500D01*
X62255Y151799D02*
Y155736D01*
X60286Y153768D02*
X64223D01*
X47877Y153825D02*
X51026D01*
X49451Y152250D02*
Y155400D01*
X62090Y123000D02*
X65240D01*
X63665Y121425D02*
Y124575D01*
X51037Y121114D02*
Y125051D01*
X49069Y123082D02*
X53006D01*
X57730Y121114D02*
Y125051D01*
X55762Y123082D02*
X59699D01*
X106644Y99612D02*
Y103549D01*
X104675Y101581D02*
X108612D01*
X111369Y101966D02*
X114519D01*
X112944Y100392D02*
Y103541D01*
X78355Y99790D02*
Y103727D01*
X76386Y101759D02*
X80323D01*
X70482Y99608D02*
Y103545D01*
X68514Y101577D02*
X72451D01*
X266805Y67717D02*
Y149016D01*
X336687D01*
Y67717D02*
Y149016D01*
X266805Y67717D02*
X336687D01*
D43*
X81796Y118124D02*
X118804D01*
X81796Y171667D02*
X118804D01*
Y118124D02*
Y171667D01*
X81796Y118124D02*
Y171667D01*
X96661Y188969D02*
X106897D01*
X96661Y193300D02*
X106897D01*
Y188969D02*
Y193300D01*
X96661Y188969D02*
Y193300D01*
X175820Y90531D02*
Y100768D01*
X171490Y90531D02*
Y100768D01*
X175820D01*
X171490Y90531D02*
X175820D01*
X192356D02*
Y100768D01*
X188025Y90531D02*
Y100768D01*
X192356D01*
X188025Y90531D02*
X192356D01*
X208891D02*
Y100768D01*
X204560Y90531D02*
Y100768D01*
X208891D01*
X204560Y90531D02*
X208891D01*
X225427D02*
Y100768D01*
X221096Y90531D02*
Y100768D01*
X225427D01*
X221096Y90531D02*
X225427D01*
X241962D02*
Y100768D01*
X237631Y90531D02*
Y100768D01*
X241962D01*
X237631Y90531D02*
X241962D01*
X122718Y153903D02*
X132955D01*
X122718Y149572D02*
X132955D01*
X122718D02*
Y153903D01*
X132955Y149572D02*
Y153903D01*
X117893Y197913D02*
X128129D01*
X117893Y202243D02*
X128129D01*
Y197913D02*
Y202243D01*
X117893Y197913D02*
Y202243D01*
X129305Y164425D02*
X139542D01*
X129305Y160094D02*
X139542D01*
X129305D02*
Y164425D01*
X139542Y160094D02*
Y164425D01*
X118601Y164413D02*
X128838D01*
X118601Y160083D02*
X128838D01*
X118601D02*
Y164413D01*
X128838Y160083D02*
Y164413D01*
X134281Y153952D02*
X141762D01*
X134281Y139385D02*
X141762D01*
Y153952D01*
X134281Y139385D02*
Y153952D01*
X121604Y148347D02*
X132234D01*
X121604Y143623D02*
X132234D01*
X121604D02*
Y148347D01*
X132234Y143623D02*
Y148347D01*
X121466Y139159D02*
X132096D01*
X121466Y134435D02*
X132096D01*
X121466D02*
Y139159D01*
X132096Y134435D02*
Y139159D01*
X121562Y143881D02*
X132192D01*
X121562Y139157D02*
X132192D01*
X121562D02*
Y143881D01*
X132192Y139157D02*
Y143881D01*
X135745Y201055D02*
X146375D01*
X135745Y196330D02*
X146375D01*
X135745D02*
Y201055D01*
X146375Y196330D02*
Y201055D01*
X251921Y158128D02*
X257826D01*
X251921Y146317D02*
X257826D01*
Y158128D01*
X251921Y146317D02*
Y158128D01*
X163088Y144030D02*
X167418D01*
X163088Y154266D02*
X167418D01*
X163088Y144030D02*
Y154266D01*
X167418Y144030D02*
Y154266D01*
X167941Y154316D02*
X172665D01*
X167941Y143686D02*
X172665D01*
Y154316D01*
X167941Y143686D02*
Y154316D01*
Y165221D02*
X172665D01*
X167941Y154591D02*
X172665D01*
Y165221D01*
X167941Y154591D02*
Y165221D01*
X163161Y164951D02*
X167492D01*
X163161Y154715D02*
X167492D01*
Y164951D01*
X163161Y154715D02*
Y164951D01*
X162431Y152679D02*
Y157404D01*
X151801Y152679D02*
Y157404D01*
Y152679D02*
X162431D01*
X151801Y157404D02*
X162431D01*
X163955Y192043D02*
X168285D01*
X163955Y181807D02*
X168285D01*
Y192043D01*
X163955Y181807D02*
Y192043D01*
X168752Y192388D02*
X173476D01*
X168752Y181758D02*
X173476D01*
Y192388D01*
X168752Y181758D02*
Y192388D01*
X168693Y181320D02*
X173417D01*
X168693Y170690D02*
X173417D01*
Y181320D01*
X168693Y170690D02*
Y181320D01*
X163767Y171063D02*
X168098D01*
X163767Y181300D02*
X168098D01*
X163767Y171063D02*
Y181300D01*
X168098Y171063D02*
Y181300D01*
X162957Y178902D02*
Y183626D01*
X152327Y178902D02*
Y183626D01*
Y178902D02*
X162957D01*
X152327Y183626D02*
X162957D01*
X236588Y197228D02*
X236588Y139227D01*
X173588D02*
X236588D01*
X173588D02*
Y197228D01*
X236588D01*
X76171Y179845D02*
X82076D01*
X76171Y191656D02*
X82076D01*
X76171Y179845D02*
Y191656D01*
X82076Y179845D02*
Y191656D01*
X82372Y179845D02*
X88277D01*
X82372Y191656D02*
X88277D01*
X82372Y179845D02*
Y191656D01*
X88277Y179845D02*
Y191656D01*
X70954Y180239D02*
Y190869D01*
X75679Y180239D02*
Y190869D01*
X70954Y180239D02*
X75679D01*
X70954Y190869D02*
X75679D01*
X58985Y163412D02*
X64890D01*
X58985Y175223D02*
X64890D01*
X58985Y163412D02*
Y175223D01*
X64890Y163412D02*
Y175223D01*
X47573Y163971D02*
Y174601D01*
X52297Y163971D02*
Y174601D01*
X47573Y163971D02*
X52297D01*
X47573Y174601D02*
X52297D01*
X52785Y163512D02*
X58690D01*
X52785Y175323D02*
X58690D01*
X52785Y163512D02*
Y175323D01*
X58690Y163512D02*
Y175323D01*
X53118Y134334D02*
X59023D01*
X53118Y146145D02*
X59023D01*
X53118Y134334D02*
Y146145D01*
X59023Y134334D02*
Y146145D01*
X59811Y134334D02*
X65716D01*
X59811Y146145D02*
X65716D01*
X59811Y134334D02*
Y146145D01*
X65716Y134334D02*
Y146145D01*
X52533Y135162D02*
Y145792D01*
X47808Y135162D02*
Y145792D01*
X52533D01*
X47808Y135162D02*
X52533D01*
X96405Y107452D02*
X102311D01*
X96405Y95641D02*
X102311D01*
Y107452D01*
X96405Y95641D02*
Y107452D01*
X88620Y96362D02*
Y106992D01*
X93345Y96362D02*
Y106992D01*
X88620D02*
X93345D01*
X88620Y96362D02*
X93345D01*
X82095Y107664D02*
X88001D01*
X82095Y95853D02*
X88001D01*
X82095D02*
Y107664D01*
X88001Y95853D02*
Y107664D01*
X61088Y107140D02*
X66993D01*
X61088Y95329D02*
X66993D01*
Y107140D01*
X61088Y95329D02*
Y107140D01*
X42895Y107611D02*
X48801D01*
X42895Y95800D02*
X48801D01*
Y107611D01*
X42895Y95800D02*
Y107611D01*
X54145Y96309D02*
Y106939D01*
X49420Y96309D02*
Y106939D01*
X54145D01*
X49420Y96309D02*
X54145D01*
X36202Y107611D02*
X42108D01*
X36202Y95800D02*
X42108D01*
Y107611D01*
X36202Y95800D02*
Y107611D01*
X257826Y177679D02*
Y189490D01*
X251921Y177679D02*
Y189490D01*
X257826D01*
X251921Y177679D02*
X257826D01*
X60453Y96548D02*
Y107178D01*
X55729Y96548D02*
Y107178D01*
X60453D01*
X55729Y96548D02*
X60453D01*
X101867Y175234D02*
X107772D01*
X101867Y187046D02*
X107772D01*
X101867Y175234D02*
Y187046D01*
X107772Y175234D02*
Y187046D01*
X95666Y175234D02*
X101572D01*
X95666Y187046D02*
X101572D01*
X95666Y175234D02*
Y187046D01*
X101572Y175234D02*
Y187046D01*
X90450Y175628D02*
Y186258D01*
X95174Y175628D02*
Y186258D01*
X90450Y175628D02*
X95174D01*
X90450Y186258D02*
X95174D01*
X51900Y179786D02*
Y190416D01*
X47175Y179786D02*
Y190416D01*
X51900D01*
X47175Y179786D02*
X51900D01*
X58548Y179096D02*
X64453D01*
X58548Y190907D02*
X64453D01*
X58548Y179096D02*
Y190907D01*
X64453Y179096D02*
Y190907D01*
X52348Y179196D02*
X58253D01*
X52348Y191007D02*
X58253D01*
X52348Y179196D02*
Y191007D01*
X58253Y179196D02*
Y191007D01*
X52579Y147993D02*
X58484D01*
X52579Y159804D02*
X58484D01*
Y147993D02*
Y159804D01*
X52579Y147993D02*
Y159804D01*
X59302Y147862D02*
X65207D01*
X59302Y159673D02*
X65207D01*
Y147862D02*
Y159673D01*
X59302Y147862D02*
Y159673D01*
X51814Y148510D02*
Y159140D01*
X47089Y148510D02*
Y159140D01*
Y148510D02*
X51814D01*
X47089Y159140D02*
X51814D01*
X66027Y117685D02*
Y128315D01*
X61303Y117685D02*
Y128315D01*
X66027D01*
X61303Y117685D02*
X66027D01*
X48085Y128988D02*
X53990D01*
X48085Y117177D02*
X53990D01*
Y128988D01*
X48085Y117177D02*
Y128988D01*
X54777D02*
X60683D01*
X54777Y117177D02*
X60683D01*
Y128988D01*
X54777Y117177D02*
Y128988D01*
X103691Y107486D02*
X109597D01*
X103691Y95675D02*
X109597D01*
Y107486D01*
X103691Y95675D02*
Y107486D01*
X115306Y96651D02*
Y107281D01*
X110582Y96651D02*
Y107281D01*
X115306D01*
X110582Y96651D02*
X115306D01*
X75402Y107664D02*
X81308D01*
X75402Y95853D02*
X81308D01*
X75402D02*
Y107664D01*
X81308Y95853D02*
Y107664D01*
X67530Y107482D02*
X73435D01*
X67530Y95671D02*
X73435D01*
Y107482D01*
X67530Y95671D02*
Y107482D01*
M02*
